<svg xmlns="http://www.w3.org/2000/svg" version="1.1" xmlns:xlink="http://www.w3.org/1999/xlink" xmlns:svgjs="http://svgjs.dev/svgjs" width="1000" height="1125" viewBox="0 0 1000 1125"><g transform="matrix(1,0,0,1,1.7053025658242404e-13,0)"><svg viewBox="0 0 320 360" data-background-color="#ffffff" preserveAspectRatio="xMidYMid meet" height="1125" width="1000" xmlns="http://www.w3.org/2000/svg" xmlns:xlink="http://www.w3.org/1999/xlink"><g id="tight-bounds" transform="matrix(1,0,0,1,0,0)"><svg viewBox="0 0 320 360" height="360" width="320"><g><svg></svg></g><g><svg viewBox="0 0 320 360" height="360" width="320"><g><path xmlns="http://www.w3.org/2000/svg" d="M320 204.145c-0.08-8.44-5.414-15.128-5.494-23.568-0.04-8.44 5.215-18.631 5.136-27.071-2.667-8.002-9.833-12.7-12.501-20.702-2.667-8.002-0.836-19.348-3.463-27.35-5.016-6.808-13.297-9.037-18.274-15.805-5.016-6.808-6.768-18.154-11.744-24.921-6.847-4.897-15.407-4.499-22.294-9.396-6.847-4.897-12.023-15.168-18.91-20.065-8.042-2.548-16.044 0.518-24.086-2.07-8.042-2.548-16.123-10.709-24.165-13.257-8.44 0.08-15.128 5.414-23.568 5.494-8.44 0.04-18.631-5.215-27.071-5.135-8.002 2.667-12.7 9.833-20.702 12.5-8.002 2.667-19.348 0.836-27.35 3.504-6.808 5.016-9.037 13.297-15.805 18.273-6.808 5.016-18.154 6.768-24.922 11.784-4.897 6.847-4.499 15.407-9.395 22.294-4.897 6.847-15.168 12.023-20.065 18.91-2.548 8.042 0.478 16.044-2.07 24.086-2.548 8.042-10.709 16.123-13.257 24.165 0.04 8.44 5.414 15.128 5.494 23.568 0.04 8.44-5.215 18.631-5.136 27.071 2.667 8.002 9.833 12.7 12.501 20.702 2.667 8.002 0.836 19.348 3.503 27.35 5.016 6.808 13.297 9.037 18.273 15.845 5.016 6.808 6.768 18.154 11.745 24.921 6.847 4.897 15.407 4.499 22.294 9.396 6.847 4.897 12.023 15.168 18.91 20.065 8.042 2.548 16.044-0.478 24.086 2.07 8.042 2.548 16.123 10.709 24.165 13.257 8.44-0.08 15.128-5.414 23.568-5.494 8.44-0.04 18.631 5.215 27.071 5.135 8.002-2.667 12.7-9.833 20.702-12.5 8.002-2.667 19.348-0.836 27.35-3.504 6.808-5.016 9.037-13.297 15.845-18.273 6.808-5.016 18.154-6.768 24.921-11.744 4.897-6.847 4.499-15.407 9.396-22.294 4.897-6.847 15.168-12.023 20.064-18.91 2.548-8.042-0.478-16.044 2.071-24.086 2.468-8.121 10.63-16.203 13.177-24.245zM305.987 227.395c-3.623 7.126-12.501 13.456-16.164 20.582-3.623 7.126-2.03 15.088-5.653 22.215-5.653 5.653-16.044 8.918-21.737 14.57-5.653 5.653-6.569 13.735-12.261 19.388-7.126 3.623-18.034 3.503-25.161 7.166-7.126 3.623-10.51 11.028-17.636 14.651-7.922 1.234-18.233-2.229-26.156-0.996-7.922 1.234-13.416 7.246-21.299 8.48-7.922-1.234-16.641-7.763-24.563-8.997-7.922-1.274-14.969 2.747-22.891 1.473-7.126-3.623-13.456-12.54-20.582-16.163-7.126-3.623-15.088-2.03-22.255-5.654-5.653-5.653-8.918-16.044-14.571-21.736-5.653-5.653-13.735-6.609-19.387-12.262-3.623-7.126-3.503-18.034-7.166-25.161-3.623-7.126-11.028-10.51-14.651-17.636-1.234-7.922 2.229-18.233 0.995-26.156-1.274-7.922-7.246-13.416-8.479-21.298 1.274-7.922 7.763-16.641 8.997-24.564 1.234-7.922-2.747-14.969-1.473-22.891 3.623-7.126 12.54-13.456 16.163-20.582 3.623-7.126 2.03-15.088 5.653-22.254 5.653-5.653 16.044-8.918 21.737-14.571 5.653-5.653 6.609-13.735 12.262-19.388 7.126-3.623 18.034-3.503 25.16-7.166 7.126-3.623 10.51-11.028 17.637-14.651 7.922-1.234 18.233 2.229 26.155 0.996 7.922-1.234 13.416-7.246 21.299-8.48 7.922 1.234 16.641 7.763 24.564 8.997 7.922 1.274 14.969-2.747 22.891-1.473 7.126 3.623 13.456 12.54 20.582 16.163 7.126 3.623 15.088 2.03 22.254 5.654 5.653 5.653 8.918 16.044 14.571 21.736 5.653 5.653 13.735 6.609 19.388 12.262 3.623 7.126 3.503 18.034 7.166 25.161 3.623 7.126 11.028 10.51 14.65 17.636 1.274 7.922-2.229 18.233-0.995 26.156 1.234 7.922 7.246 13.416 8.48 21.298-1.234 7.922-7.763 16.641-8.997 24.564-1.234 7.922 2.747 15.009 1.473 22.931z" fill="#0063db" fill-rule="nonzero" stroke="none" stroke-width="1" stroke-linecap="butt" stroke-linejoin="miter" stroke-miterlimit="10" stroke-dasharray="" stroke-dashoffset="0" font-family="none" font-weight="none" font-size="none" text-anchor="none" style="mix-blend-mode: normal" data-fill-palette-color="tertiary"></path></g><g transform="matrix(1,0,0,1,60.999999999999986,80.99999999999999)"><svg viewBox="0 0 198.00000000000003 198.00000000000003" height="198.00000000000003" width="198.00000000000003"><g><svg viewBox="0 0 198.00000000000003 198.00000000000003" height="198.00000000000003" width="198.00000000000003"><g><svg viewBox="0 0 198.00000000000003 198.00000000000003" height="198.00000000000003" width="198.00000000000003"><g id="textblocktransform"><svg viewBox="0 0 198.00000000000003 198.00000000000003" height="198.00000000000003" width="198.00000000000003" id="textblock"><g><svg viewBox="0 0 198.00000000000003 198.00000000000003" height="198.00000000000003" width="198.00000000000003"><g transform="matrix(1,0,0,1,52.33095244168787,60.10882141951197)"><svg viewBox="0 0 93.33809511662429 77.78235716097609" height="77.78235716097609" width="93.33809511662429"><g><svg xmlns="http://www.w3.org/2000/svg" xmlns:xlink="http://www.w3.org/1999/xlink" version="1.1" x="0" y="0" viewBox="0 0 30 25.00019645690918" style="enable-background:new 0 0 30 25;" xml:space="preserve" width="93.33809511662429" height="77.78235716097609" class="icon-o-0" data-fill-palette-color="accent" id="o-0"><g fill="#564949" data-fill-palette-color="accent"><path d="M21.621 20.839c-3.672-3.296-5.011-2.642-6.041-1.937-0.197 0.136-0.406 0.372-0.58 0.674-0.175-0.302-0.383-0.538-0.581-0.674-1.03-0.705-2.369-1.359-6.041 1.937-3.673 3.297-6.077 1.488-6.077 1.488 0.52 1.443 4.95 3.67 9.716 2.18 1.617-0.505 2.521-1.232 2.983-1.999 0.463 0.767 1.366 1.494 2.982 1.999 4.766 1.49 9.197-0.736 9.716-2.18C27.698 22.327 25.295 24.136 21.621 20.839z" fill="#564949" data-fill-palette-color="accent"></path><path d="M23 0c-3.519 0-6.432 2.613-6.92 6h-2.16C13.432 2.613 10.519 0 7 0 3.141 0 0 3.141 0 7s3.141 7 7 7c3.519 0 6.432-2.613 6.92-6h2.16c0.488 3.387 3.401 6 6.92 6 3.859 0 7-3.141 7-7S26.859 0 23 0zM7 12c-2.757 0-5-2.243-5-5s2.243-5 5-5 5 2.243 5 5S9.757 12 7 12zM23 12c-2.757 0-5-2.243-5-5s2.243-5 5-5 5 2.243 5 5S25.757 12 23 12z" fill="#564949" data-fill-palette-color="accent"></path></g></svg></g></svg></g><path d="M9.36 136.376c-0.601-1.668-0.776-3.246-0.525-4.733 0.26-1.482 0.915-2.792 1.965-3.928 1.057-1.139 2.46-2.024 4.21-2.654v0c1.875-0.676 3.693-0.873 5.452-0.593 1.766 0.278 3.319 1.001 4.661 2.169 1.348 1.165 2.36 2.686 3.035 4.561v0c0.244 0.677 0.45 1.407 0.619 2.19 0.169 0.783 0.292 1.45 0.371 2.003 0.085 0.55 0.136 0.908 0.152 1.072v0l-0.197 0.22c-0.126 0.003-0.428 0.041-0.905 0.113-0.485 0.069-1.107 0.183-1.864 0.342-0.751 0.157-1.542 0.353-2.371 0.589v0l-0.836-1.878c0.101-0.015 0.283-0.06 0.547-0.134 0.264-0.074 0.562-0.171 0.894-0.29v0c1.637-0.59 2.021-2.092 1.151-4.507v0c-0.601-1.668-1.662-2.764-3.182-3.286-1.514-0.525-3.322-0.408-5.423 0.348v0c-1.562 0.563-2.834 1.28-3.817 2.151-0.983 0.871-1.633 1.839-1.952 2.904-0.314 1.056-0.269 2.145 0.136 3.268v0c0.411 1.142 1.07 1.928 1.976 2.359 0.9 0.434 2.112 0.543 3.637 0.327v0l0.864 1.868c-0.315 0.05-1.009 0.179-2.082 0.389-1.066 0.207-2.054 0.435-2.963 0.685v0l-0.344-0.1c-0.019 0.007-0.232-0.25-0.639-0.769-0.401-0.522-0.84-1.182-1.319-1.98-0.475-0.807-0.892-1.709-1.251-2.706zM26.457 164.607l0.081-0.213 1.169-0.849c0.708 0.71 1.217 1.145 1.526 1.303 0.318 0.158 0.617 0.119 0.896-0.119v0c0.269-0.229 0.537-0.548 0.802-0.956v0l1.573-2.412c-0.3-0.384-0.911-1.12-1.835-2.207v0c-0.621-0.732-1.326-1.454-2.115-2.166v0l-2.659 1.025c-0.495 0.21-0.808 0.372-0.941 0.483v0c-0.3 0.255-0.431 0.528-0.393 0.82 0.033 0.296 0.232 0.66 0.599 1.092v0l0.965 1.135-0.056 0.166-1.26 0.834c-0.149-0.206-0.481-0.654-0.998-1.344-0.521-0.686-1.041-1.334-1.558-1.944v0c-0.492-0.579-0.953-1.106-1.382-1.581-0.425-0.47-0.715-0.78-0.868-0.929v0l1.376-0.867c0.393 0.34 0.806 0.527 1.238 0.562 0.432 0.045 1.02-0.071 1.767-0.346v0l14.946-5.45 2.355 2.001 0.12 0.279c-0.285 0.417-0.937 1.369-1.957 2.856-1.024 1.482-2.197 3.222-3.519 5.219-1.317 1.993-2.455 3.768-3.414 5.326v0c-0.416 0.633-0.614 1.177-0.594 1.633 0.015 0.46 0.248 1.014 0.701 1.661v0l-0.062 0.158-1.227 0.78c-0.136-0.191-0.408-0.542-0.815-1.053-0.412-0.516-0.832-1.026-1.259-1.528v0c-0.647-0.762-1.294-1.472-1.941-2.131-0.651-0.654-1.072-1.066-1.261-1.238zM30.404 156.216l1.522 1.792c0.505 0.595 1.066 1.194 1.684 1.797v0l4.142-6.168-0.194-0.229zM48.165 183.652c-0.729-0.456-1.358-0.94-1.887-1.452-0.531-0.521-0.945-0.984-1.242-1.39-0.306-0.404-0.454-0.614-0.443-0.631v0l0.046-0.395c0.077-0.085 0.258-0.306 0.544-0.662 0.288-0.347 0.669-0.832 1.146-1.455 0.474-0.632 0.917-1.278 1.33-1.939v0l1.598 0.822c-0.686 1.097-1.12 1.973-1.303 2.629-0.182 0.656-0.131 1.228 0.156 1.713 0.29 0.48 0.856 0.983 1.698 1.51v0c0.933 0.583 1.815 0.832 2.647 0.747 0.834-0.076 1.479-0.479 1.934-1.208v0c0.392-0.627 0.453-1.321 0.181-2.081-0.278-0.763-0.79-1.76-1.539-2.991v0c-0.033-0.06-0.14-0.241-0.321-0.542v0c-0.868-1.416-1.45-2.668-1.744-3.756-0.304-1.086-0.139-2.135 0.494-3.148v0c0.558-0.893 1.331-1.538 2.319-1.935 0.987-0.397 2.075-0.515 3.264-0.353 1.185 0.167 2.357 0.613 3.515 1.337v0c0.684 0.428 1.291 0.878 1.821 1.351 0.539 0.471 0.955 0.868 1.248 1.193 0.292 0.324 0.469 0.526 0.531 0.603v0l-0.042 0.293c-0.196 0.2-0.615 0.669-1.257 1.407-0.648 0.735-1.299 1.555-1.951 2.46v0l-1.428-0.716-0.099-0.274c0.045-0.035 0.145-0.157 0.3-0.367 0.151-0.204 0.31-0.439 0.476-0.705v0c0.505-0.808 0.655-1.501 0.45-2.077-0.202-0.582-0.809-1.19-1.821-1.823v0c-0.808-0.505-1.605-0.721-2.392-0.646-0.786 0.075-1.371 0.42-1.756 1.036v0c-0.392 0.627-0.449 1.327-0.169 2.1 0.274 0.769 0.8 1.79 1.576 3.062v0c0.684 1.12 1.205 2.047 1.563 2.782 0.362 0.729 0.583 1.501 0.665 2.314 0.075 0.81-0.115 1.579-0.571 2.309v0c-0.601 0.961-1.403 1.647-2.407 2.057-1.004 0.41-2.123 0.516-3.359 0.317-1.236-0.199-2.493-0.698-3.771-1.496zM79.637 195.892l-0.065-0.219 0.408-1.385c0.995 0.131 1.662 0.164 2.003 0.1 0.349-0.069 0.561-0.282 0.638-0.641v0c0.074-0.346 0.091-0.761 0.051-1.247v0l-0.225-2.87c-0.472-0.121-1.405-0.331-2.801-0.629v0c-0.939-0.2-1.938-0.342-2.998-0.425v0l-1.48 2.435c-0.264 0.469-0.414 0.788-0.45 0.957v0c-0.082 0.385-0.019 0.681 0.188 0.889 0.206 0.214 0.587 0.381 1.141 0.5v0l1.458 0.311 0.056 0.165-0.489 1.429c-0.244-0.072-0.78-0.225-1.61-0.456-0.831-0.225-1.638-0.421-2.421-0.588v0c-0.743-0.159-1.43-0.295-2.06-0.409-0.624-0.113-1.042-0.181-1.254-0.206v0l0.561-1.527c0.519 0.029 0.96-0.075 1.324-0.311 0.369-0.228 0.765-0.679 1.188-1.351v0l8.513-13.44 3.088 0.148 0.265 0.148c0.029 0.504 0.093 1.656 0.192 3.457 0.093 1.799 0.226 3.893 0.398 6.281 0.173 2.382 0.355 4.483 0.546 6.304v0c0.057 0.755 0.232 1.307 0.526 1.656 0.292 0.356 0.815 0.651 1.57 0.887v0l0.046 0.164-0.496 1.366c-0.224-0.068-0.653-0.18-1.288-0.336-0.641-0.157-1.285-0.305-1.93-0.443v0c-0.978-0.209-1.924-0.377-2.838-0.503-0.915-0.12-1.5-0.191-1.755-0.211zM77.644 186.836l2.298 0.49c0.763 0.163 1.573 0.295 2.431 0.396v0l-0.483-7.414-0.293-0.063zM118.366 196.834c-1.855-2.2-3.649-4.287-5.38-6.261-1.739-1.98-3.164-3.578-4.275-4.795-1.106-1.224-1.808-1.994-2.106-2.311v0l-0.208 0.028 1.345 10.939c0.083 0.467 0.205 0.776 0.367 0.93 0.156 0.161 0.409 0.218 0.76 0.17v0l1.393-0.217 0.108 0.127-0.06 1.582c-0.234 0.011-0.684 0.045-1.349 0.1-0.658 0.061-1.337 0.139-2.037 0.233v0c-0.562 0.075-1.162 0.189-1.801 0.342-0.638 0.16-1.055 0.259-1.251 0.299v0l-0.036-1.62c0.591-0.16 1.006-0.397 1.247-0.712 0.246-0.322 0.34-0.775 0.281-1.359v0l-1.255-12.222c-0.081-0.601-0.306-1.005-0.676-1.211-0.377-0.205-1.055-0.292-2.033-0.263v0l-0.146-0.182 0.019-1.365c0.201-0.007 0.621-0.033 1.261-0.078 0.645-0.053 1.193-0.109 1.642-0.169v0c0.443-0.059 0.9-0.134 1.372-0.225 0.472-0.09 0.773-0.154 0.903-0.191v0c1.576 1.874 3.161 3.713 4.755 5.517 1.586 1.799 2.908 3.276 3.965 4.433 1.051 1.164 1.713 1.893 1.988 2.185v0l0.208-0.028-1.428-10.423c-0.112-0.833-0.488-1.206-1.129-1.12v0l-1.036 0.169-0.113-0.166 0.026-1.537c0.241-0.012 0.67-0.046 1.287-0.102 0.625-0.057 1.267-0.13 1.929-0.218v0c0.542-0.073 1.143-0.18 1.803-0.323 0.659-0.149 1.087-0.247 1.282-0.293v0l0.066 1.616c-0.647 0.188-1.101 0.44-1.362 0.757-0.266 0.325-0.368 0.769-0.305 1.333v0l1.722 16.014zM145.716 185.815c-1.44 0.799-2.885 1.17-4.335 1.112-1.45-0.057-2.811-0.526-4.085-1.405-1.267-0.883-2.342-2.12-3.225-3.712v0c-0.948-1.708-1.438-3.445-1.472-5.21-0.031-1.774 0.374-3.402 1.214-4.882 0.843-1.489 2.067-2.679 3.67-3.569v0c1.475-0.818 2.949-1.205 4.422-1.16 1.479 0.041 2.853 0.491 4.123 1.349 1.269 0.859 2.345 2.084 3.228 3.676v0c0.957 1.726 1.45 3.48 1.479 5.264 0.029 1.783-0.396 3.43-1.275 4.938-0.876 1.5-2.124 2.699-3.744 3.599zM145.523 183.714c0.956-0.53 1.652-1.248 2.087-2.153 0.439-0.899 0.601-1.927 0.486-3.082-0.115-1.156-0.514-2.349-1.196-3.58v0c-0.815-1.469-1.733-2.63-2.755-3.481-1.025-0.857-2.085-1.36-3.18-1.506-1.105-0.15-2.17 0.06-3.196 0.629v0c-0.939 0.521-1.617 1.229-2.035 2.124-0.421 0.889-0.569 1.902-0.443 3.036 0.129 1.14 0.535 2.326 1.218 3.556v0c0.815 1.469 1.727 2.633 2.736 3.491 1.015 0.855 2.064 1.371 3.147 1.548 1.079 0.172 2.122-0.022 3.131-0.582zM170.624 165.999c-0.977-0.447-3.076-1.397-6.298-2.849-3.222-1.452-6.188-2.742-8.897-3.869v0c-0.563-0.244-1.074-0.307-1.533-0.191-0.463 0.122-0.925 0.438-1.386 0.947v0l-0.166-0.036-1.004-1.12c0.164-0.193 0.486-0.549 0.965-1.069 0.475-0.515 0.935-1.034 1.38-1.557v0c0.493-0.578 1.043-1.279 1.649-2.103 0.597-0.823 0.982-1.367 1.155-1.631v0l0.26 0.065 0.968 1.023c-0.409 0.572-0.696 1.006-0.861 1.302-0.161 0.301-0.226 0.548-0.197 0.739 0.029 0.192 0.156 0.383 0.379 0.573v0c0.309 0.264 2.082 1.18 5.318 2.749 3.24 1.564 5.45 2.62 6.629 3.171v0l0.214-0.252c-0.915-1.701-2.233-4.013-3.955-6.936-1.726-2.918-2.743-4.509-3.053-4.773v0c-0.284-0.242-0.578-0.314-0.882-0.213-0.304 0.1-0.664 0.393-1.08 0.88v0l-0.895 1.05-0.173-0.029-1.017-1.104c0.193-0.195 0.594-0.615 1.206-1.259 0.611-0.644 1.178-1.273 1.702-1.887v0c0.493-0.578 0.931-1.107 1.314-1.587 0.392-0.48 0.644-0.801 0.754-0.961v0l1.118 1.217c-0.329 0.447-0.496 0.813-0.502 1.097-0.005 0.294 0.138 0.691 0.428 1.193v0l8.02 14.636zM188.209 136.865l-0.226 0.028-1.298-0.634c0.295-0.959 0.439-1.612 0.434-1.958-0.01-0.355-0.185-0.601-0.526-0.736v0c-0.328-0.13-0.735-0.217-1.221-0.259v0l-2.867-0.257c-0.198 0.445-0.561 1.33-1.088 2.657v0c-0.354 0.892-0.661 1.854-0.919 2.884v0l2.153 1.867c0.418 0.338 0.708 0.539 0.868 0.603v0c0.366 0.145 0.668 0.133 0.908-0.037 0.246-0.168 0.474-0.515 0.683-1.042v0l0.55-1.385 0.173-0.028 1.328 0.721c-0.112 0.228-0.352 0.732-0.719 1.511-0.361 0.782-0.689 1.545-0.984 2.289v0c-0.281 0.706-0.53 1.361-0.748 1.963-0.215 0.596-0.353 0.997-0.413 1.202v0l-1.411-0.808c0.115-0.507 0.087-0.959-0.085-1.357-0.163-0.402-0.541-0.868-1.135-1.398v0l-11.829-10.638 0.661-3.019 0.191-0.236c0.502 0.056 1.648 0.185 3.44 0.387 1.789 0.209 3.876 0.428 6.26 0.657 2.378 0.227 4.48 0.398 6.306 0.514v0c0.754 0.07 1.328-0.011 1.721-0.242 0.399-0.229 0.778-0.695 1.137-1.399v0l0.169-0.019 1.264 0.717c-0.105 0.209-0.287 0.614-0.547 1.214-0.262 0.606-0.515 1.216-0.758 1.829v0c-0.369 0.929-0.693 1.834-0.971 2.714-0.271 0.882-0.438 1.447-0.501 1.695zM178.948 137.318l0.867-2.184c0.288-0.725 0.553-1.502 0.797-2.331v0l-7.391-0.762-0.111 0.279z" fill="#0063db" data-fill-palette-color="primary"></path><path d="M23.235 71.564C22.62 73.263 21.728 74.61 20.559 75.605 19.397 76.602 18.031 77.203 16.46 77.407 14.897 77.614 13.225 77.395 11.444 76.75V76.75C9.532 76.058 7.979 75.031 6.784 73.67 5.584 72.306 4.836 70.727 4.543 68.933 4.247 67.146 4.445 65.296 5.138 63.384V63.384C5.387 62.694 5.7 61.988 6.075 61.266 6.456 60.546 6.792 59.941 7.083 59.451 7.378 58.969 7.571 58.66 7.663 58.523V58.523L7.959 58.471C8.058 58.549 8.32 58.718 8.743 58.978 9.173 59.24 9.733 59.553 10.424 59.916 11.121 60.282 11.87 60.642 12.671 60.996V60.996L12.1 63.012C12.013 62.959 11.841 62.876 11.585 62.762 11.328 62.647 11.034 62.53 10.702 62.41V62.41C9.034 61.806 7.756 62.733 6.866 65.19V65.19C6.251 66.889 6.367 68.438 7.215 69.837 8.063 71.236 9.555 72.322 11.693 73.096V73.096C13.279 73.671 14.743 73.935 16.086 73.889 17.426 73.85 18.564 73.517 19.499 72.892 20.435 72.266 21.109 71.383 21.522 70.242V70.242C21.942 69.082 21.938 68.038 21.508 67.11 21.085 66.184 20.206 65.309 18.874 64.486V64.486L19.416 62.46C19.696 62.625 20.322 62.972 21.294 63.501 22.263 64.036 23.186 64.502 24.064 64.898V64.898L24.265 65.194C24.284 65.201 24.285 65.541 24.267 66.216 24.244 66.888 24.158 67.693 24.009 68.632 23.861 69.571 23.603 70.548 23.235 71.564ZM37.624 47.762L37.393 47.71 36.353 46.679C36.953 45.851 37.306 45.267 37.412 44.927 37.517 44.588 37.425 44.295 37.135 44.048V44.048C36.861 43.815 36.499 43.598 36.048 43.398V43.398L33.37 42.208C33.031 42.575 32.39 43.313 31.447 44.419V44.419C30.816 45.16 30.206 45.985 29.617 46.893V46.893L31.088 49.407C31.375 49.861 31.587 50.147 31.724 50.264V50.264C32.029 50.523 32.324 50.613 32.611 50.533 32.907 50.453 33.241 50.194 33.613 49.758V49.758L34.605 48.593 34.778 48.621 35.818 49.744C35.634 49.929 35.237 50.339 34.626 50.975 34.024 51.609 33.459 52.236 32.932 52.856V52.856C32.426 53.449 31.971 53.999 31.567 54.504 31.163 55.01 30.897 55.353 30.77 55.533V55.533L29.677 54.287C29.953 53.839 30.074 53.394 30.038 52.953 30.012 52.51 29.803 51.938 29.411 51.236V51.236L21.483 37.102 23.104 34.411 23.368 34.241C23.834 34.454 24.898 34.953 26.559 35.737 28.216 36.527 30.156 37.421 32.378 38.421 34.597 39.426 36.569 40.282 38.295 40.99V40.99C38.996 41.298 39.574 41.406 40.031 41.312 40.492 41.223 41.012 40.9 41.592 40.343V40.343L41.764 40.372 42.74 41.478C42.569 41.648 42.26 41.98 41.812 42.475 41.365 42.97 40.92 43.476 40.479 43.993V43.993C39.822 44.765 39.217 45.528 38.662 46.281 38.108 47.045 37.763 47.538 37.624 47.762ZM28.542 45.163L30.091 43.343C30.61 42.734 31.122 42.071 31.627 41.354V41.354L24.741 38.196 24.547 38.424ZM56.026 31.823C55.285 32.286 54.559 32.646 53.847 32.903 53.14 33.156 52.534 33.33 52.028 33.427 51.518 33.517 51.258 33.554 51.248 33.537V33.537L50.904 33.327C50.861 33.22 50.743 32.956 50.55 32.534 50.357 32.112 50.081 31.546 49.723 30.834 49.355 30.12 48.961 29.427 48.541 28.754V28.754L50.005 27.662C50.701 28.776 51.31 29.562 51.833 30.022 52.356 30.481 52.902 30.687 53.469 30.638 54.037 30.59 54.753 30.296 55.618 29.755V29.755C56.562 29.165 57.182 28.471 57.477 27.673 57.778 26.872 57.697 26.101 57.234 25.36V25.36C56.835 24.721 56.225 24.356 55.404 24.263 54.587 24.176 53.449 24.204 51.989 24.346V24.346C51.917 24.344 51.702 24.36 51.346 24.394V24.394C49.66 24.552 48.253 24.527 47.125 24.32 45.994 24.107 45.106 23.487 44.463 22.458V22.458C43.894 21.548 43.65 20.553 43.729 19.473 43.8 18.391 44.178 17.341 44.862 16.323 45.545 15.315 46.477 14.441 47.658 13.703V13.703C48.348 13.271 49.03 12.916 49.704 12.636 50.373 12.36 50.923 12.157 51.354 12.029 51.779 11.905 52.043 11.83 52.145 11.806V11.806L52.39 11.971C52.488 12.24 52.73 12.836 53.118 13.757 53.505 14.679 53.965 15.641 54.498 16.645V16.645L53.212 17.625 52.913 17.6C52.899 17.538 52.831 17.392 52.71 17.161 52.589 16.93 52.446 16.682 52.279 16.416V16.416C51.76 15.585 51.191 15.134 50.574 15.064 49.95 14.998 49.124 15.287 48.095 15.93V15.93C47.27 16.446 46.715 17.08 46.43 17.832 46.151 18.58 46.208 19.268 46.6 19.896V19.896C46.999 20.534 47.614 20.901 48.444 20.996 49.275 21.081 50.445 21.053 51.953 20.913V20.913C53.283 20.789 54.363 20.723 55.192 20.716 56.024 20.715 56.83 20.86 57.61 21.151 58.386 21.436 59.007 21.952 59.474 22.698V22.698C60.085 23.676 60.353 24.715 60.278 25.816 60.207 26.922 59.805 27.995 59.071 29.035 58.341 30.081 57.326 31.011 56.026 31.823ZM82.768 21.314L82.617 21.131 82.419 19.68C83.4 19.389 84.035 19.14 84.325 18.935 84.615 18.73 84.721 18.442 84.641 18.07V18.07C84.566 17.718 84.41 17.325 84.175 16.891V16.891L82.775 14.317C82.282 14.402 81.325 14.596 79.904 14.9V14.9C78.952 15.104 77.966 15.386 76.945 15.748V15.748L76.582 18.638C76.532 19.173 76.527 19.529 76.564 19.705V19.705C76.648 20.096 76.828 20.347 77.104 20.459 77.388 20.575 77.81 20.574 78.371 20.454V20.454L79.867 20.134 79.987 20.262 80.128 21.786C79.87 21.821 79.305 21.904 78.433 22.036 77.569 22.173 76.74 22.326 75.944 22.497V22.497C75.181 22.66 74.486 22.819 73.858 22.973 73.229 23.128 72.81 23.238 72.599 23.304V23.304L72.491 21.65C72.982 21.463 73.349 21.183 73.59 20.811 73.839 20.445 74.021 19.864 74.137 19.068V19.068L76.455 3.028 79.38 1.881 79.692 1.907C79.932 2.36 80.472 3.403 81.313 5.037 82.146 6.672 83.14 8.563 84.295 10.709 85.442 12.857 86.485 14.737 87.423 16.35V16.35C87.792 17.021 88.185 17.459 88.604 17.662 89.024 17.873 89.633 17.933 90.432 17.844V17.844L90.552 17.972 90.652 19.444C90.413 19.474 89.965 19.55 89.309 19.669 88.653 19.789 87.993 19.92 87.328 20.062V20.062C86.337 20.274 85.392 20.511 84.493 20.771 83.589 21.039 83.014 21.22 82.768 21.314ZM77.146 13.721L79.483 13.221C80.266 13.054 81.075 12.84 81.913 12.579V12.579L78.374 5.88 78.08 5.943ZM116.466 22.033C115.233 19.374 114.026 16.842 112.846 14.439 111.673 12.03 110.702 10.078 109.933 8.583 109.17 7.083 108.684 6.137 108.474 5.746V5.746L108.266 5.718 106.666 16.835C106.622 17.313 106.658 17.651 106.773 17.848 106.888 18.045 107.124 18.167 107.481 18.214V18.214L108.902 18.373 108.972 18.534 108.496 20.064C108.26 20.013 107.811 19.926 107.148 19.804 106.478 19.688 105.789 19.583 105.082 19.489V19.489C104.507 19.413 103.884 19.363 103.215 19.341 102.544 19.326 102.108 19.315 101.907 19.309V19.309L102.302 17.707C102.927 17.709 103.401 17.584 103.724 17.331 104.046 17.085 104.257 16.665 104.356 16.073V16.073L106.392 3.723C106.473 3.115 106.359 2.66 106.05 2.356 105.74 2.053 105.097 1.785 104.119 1.554V1.554L104.027 1.33 104.416 0C104.612 0.046 105.034 0.133 105.683 0.259 106.325 0.385 106.875 0.478 107.331 0.539V0.539C107.787 0.6 108.258 0.646 108.745 0.677 109.231 0.715 109.545 0.733 109.686 0.731V0.731C110.73 2.996 111.795 5.226 112.882 7.422 113.962 9.617 114.864 11.425 115.59 12.847 116.316 14.268 116.775 15.16 116.969 15.522V15.522L117.177 15.55 118.562 4.919C118.674 4.073 118.403 3.607 117.749 3.519V3.519L116.684 3.408 116.619 3.218 117.051 1.712C117.287 1.763 117.72 1.844 118.351 1.955 118.974 2.072 119.623 2.175 120.297 2.265V2.265C120.852 2.338 121.474 2.391 122.163 2.422 122.851 2.453 123.296 2.472 123.497 2.478V2.478L123.132 4.084C122.445 4.094 121.93 4.22 121.588 4.464 121.239 4.714 121.02 5.122 120.931 5.688V5.688L118.351 21.89ZM138.762 30.019C137.298 29.208 136.197 28.161 135.46 26.877 134.729 25.596 134.399 24.168 134.471 22.592 134.548 21.02 135.036 19.423 135.933 17.801V17.801C136.898 16.057 138.132 14.694 139.636 13.712 141.148 12.728 142.774 12.199 144.514 12.125 146.248 12.049 147.935 12.464 149.574 13.371V13.371C151.073 14.2 152.203 15.264 152.963 16.561 153.724 17.858 154.076 19.287 154.02 20.848 153.964 22.41 153.487 24.001 152.589 25.623V25.623C151.618 27.379 150.37 28.753 148.845 29.746 147.318 30.73 145.67 31.25 143.901 31.308 142.126 31.362 140.413 30.932 138.762 30.019ZM140.469 28.711C141.449 29.253 142.445 29.47 143.458 29.36 144.472 29.25 145.448 28.834 146.389 28.112 147.323 27.387 148.138 26.398 148.831 25.144V25.144C149.661 23.644 150.168 22.226 150.352 20.888 150.534 19.54 150.395 18.351 149.937 17.321 149.47 16.292 148.711 15.488 147.661 14.907V14.907C146.704 14.377 145.728 14.173 144.732 14.292 143.731 14.408 142.775 14.828 141.864 15.551 140.95 16.28 140.146 17.271 139.453 18.526V18.526C138.626 20.019 138.116 21.436 137.923 22.777 137.724 24.114 137.843 25.297 138.281 26.324 138.713 27.347 139.442 28.143 140.469 28.711ZM159.455 46.644C160.061 45.731 161.351 43.768 163.326 40.754 165.297 37.744 167.066 34.967 168.636 32.422V32.422C168.97 31.9 169.113 31.395 169.066 30.909 169.023 30.429 168.782 29.916 168.342 29.371V29.371L168.398 29.205 169.689 28.376C169.858 28.574 170.164 28.952 170.608 29.512 171.051 30.081 171.497 30.629 171.948 31.155V31.155C172.455 31.748 173.075 32.411 173.807 33.145 174.54 33.878 175.025 34.353 175.264 34.57V34.57L175.159 34.818 173.975 35.633C173.466 35.13 173.075 34.771 172.803 34.556 172.527 34.345 172.291 34.239 172.098 34.238 171.894 34.237 171.679 34.333 171.451 34.528V34.528C171.137 34.797 169.933 36.436 167.84 39.446 165.752 42.451 164.339 44.507 163.6 45.612V45.612L163.815 45.863C165.672 45.214 168.208 44.255 171.423 42.988 174.637 41.721 176.402 40.953 176.716 40.684V40.684C177.005 40.437 177.124 40.151 177.074 39.825 177.019 39.504 176.779 39.096 176.354 38.599V38.599L175.437 37.527 175.493 37.362 176.765 36.51C176.932 36.736 177.292 37.209 177.846 37.928 178.395 38.652 178.934 39.323 179.462 39.941V39.941C179.969 40.534 180.434 41.062 180.857 41.525 181.279 41.988 181.563 42.289 181.708 42.428V42.428L180.303 43.354C179.908 42.955 179.566 42.729 179.277 42.678 178.979 42.627 178.556 42.707 178.01 42.92V42.92L162.008 48.659ZM174.981 71.446L175.135 71.266 176.532 70.826C176.985 71.743 177.337 72.328 177.588 72.579 177.839 72.83 178.141 72.886 178.494 72.745V72.745C178.828 72.611 179.189 72.391 179.577 72.086V72.086L181.878 70.272C181.711 69.8 181.358 68.889 180.818 67.54V67.54C180.457 66.636 180.012 65.712 179.484 64.767V64.767L176.574 64.896C176.038 64.938 175.686 64.993 175.519 65.059V65.059C175.148 65.208 174.93 65.428 174.867 65.718 174.8 66.018 174.873 66.434 175.086 66.966V66.966L175.654 68.387 175.548 68.526 174.07 68.924C173.992 68.675 173.814 68.132 173.537 67.295 173.256 66.466 172.965 65.675 172.663 64.919V64.919C172.373 64.195 172.099 63.536 171.841 62.943 171.582 62.35 171.403 61.955 171.303 61.758V61.758L172.915 61.372C173.182 61.826 173.519 62.14 173.926 62.314 174.33 62.498 174.933 62.579 175.737 62.56V62.56L191.938 62.137 193.562 64.826 193.59 65.138C193.184 65.451 192.246 66.16 190.778 67.264 189.307 68.362 187.611 69.66 185.69 71.16 183.767 72.654 182.09 74 180.659 75.196V75.196C180.059 75.673 179.695 76.135 179.565 76.582 179.428 77.031 179.471 77.642 179.694 78.414V78.414L179.588 78.554 178.155 78.901C178.084 78.67 177.934 78.242 177.705 77.615 177.477 76.989 177.236 76.36 176.984 75.729V75.729C176.607 74.788 176.215 73.896 175.807 73.054 175.39 72.208 175.114 71.672 174.981 71.446ZM181.516 64.623L182.403 66.842C182.7 67.585 183.047 68.347 183.446 69.128V69.128L189.451 64.509 189.339 64.231Z" fill="#0063db" data-fill-palette-color="primary"></path><path d="M2.467 101.589c0-4.102 3.325-7.426 7.427-7.427 4.102 0 7.426 3.325 7.426 7.427 0 4.102-3.325 7.426-7.426 7.426-4.102 0-7.426-3.325-7.427-7.426zM180.68 101.589c0-4.102 3.325-7.426 7.426-7.427 4.102 0 7.426 3.325 7.427 7.427 0 4.102-3.325 7.426-7.427 7.426-4.102 0-7.426-3.325-7.426-7.426z" fill="#0063db" data-fill-palette-color="primary"></path></svg></g></svg></g></svg></g></svg></g></svg></g></svg></g><defs></defs></svg><rect width="320" height="360" fill="none" stroke="none" visibility="hidden"></rect></g></svg></g></svg>